<?xml version="1.0" encoding="UTF-8" standalone="no"?>
<!-- Created with Inkscape (http://www.inkscape.org/) -->

<svg
   width="512"
   height="512"
   viewBox="0 0 135.46666 135.46667"
   version="1.1"
   id="svg5"
   inkscape:version="1.1.1 (3bf5ae0d25, 2021-09-20)"
   sodipodi:docname="icon.svg"
   xmlns:inkscape="http://www.inkscape.org/namespaces/inkscape"
   xmlns:sodipodi="http://sodipodi.sourceforge.net/DTD/sodipodi-0.dtd"
   xmlns="http://www.w3.org/2000/svg"
   xmlns:svg="http://www.w3.org/2000/svg">
  <sodipodi:namedview
     id="namedview7"
     pagecolor="#505050"
     bordercolor="#eeeeee"
     borderopacity="1"
     inkscape:pageshadow="0"
     inkscape:pageopacity="0"
     inkscape:pagecheckerboard="0"
     inkscape:document-units="mm"
     showgrid="false"
     units="px"
     width="512px"
     inkscape:zoom="0.42258924"
     inkscape:cx="-160.91276"
     inkscape:cy="192.85867"
     inkscape:window-width="1920"
     inkscape:window-height="995"
     inkscape:window-x="0"
     inkscape:window-y="28"
     inkscape:window-maximized="1"
     inkscape:current-layer="layer5" />
  <defs
     id="defs2" />
  <g
     inkscape:groupmode="layer"
     id="layer5"
     inkscape:label="Layer 5">
    <circle
       style="display:inline;fill:#090909;stroke-width:5.35824;stroke-miterlimit:0;stop-color:#000000;fill-opacity:1"
       id="path490"
       cx="67.73333"
       cy="67.73333"
       r="63.5" />
    <path
       id="path490-5-3"
       style="display:inline;fill:#03675a;fill-opacity:1;stroke-width:20.2516;stroke-miterlimit:0;stop-color:#000000;stroke:none;stroke-opacity:1"
       d="M 256 16 A 240 240 0 0 0 22.626953 200.32422 C 62.606124 171.60748 104.46543 154.52703 129.01953 153.19922 C 164.90815 151.25846 200.64433 150.76899 254.50391 170.33984 C 308.3635 189.91069 376.42992 210.7033 407.43555 213.91992 C 425.58473 215.80278 456.13667 218.50684 491.9707 212.25781 A 240 240 0 0 0 256 16 z "
       transform="scale(0.26458333)" />
    <path
       id="path490-5"
       style="display:inline;fill:#023d35;fill-opacity:1;stroke-width:20.2516;stroke-miterlimit:0;stop-color:#000000"
       d="M 256 16 A 240 240 0 0 0 29.923828 175.9375 C 60.528459 156.85826 88.598937 142.7316 111.04102 137.99609 C 157.12444 128.27202 201.18035 125.92283 263.7207 140.12109 C 314.4612 151.64049 387.92008 175.42201 476.98633 162.42578 A 240 240 0 0 0 256 16 z "
       transform="scale(0.26458333)" />
  </g>
  <g
     inkscape:groupmode="layer"
     id="layer2"
     inkscape:label="Layer 2"
     style="display:inline">
    <g
       id="g2050"
       transform="matrix(1.388092,0,0,1.388092,137.25678,-2.9715439)">
      <path
         style="fill:#1ee85b;fill-opacity:1;stroke:none;stroke-width:0.264583px;stroke-linecap:butt;stroke-linejoin:miter;stroke-opacity:1"
         d="m -35.695052,77.918691 c -4.07048,-1.590215 -1.729804,-3.923474 -3.638307,-6.516695 -1.908505,-2.593221 -3.630012,-2.165808 -4.29755,-4.823606 -0.667538,-2.657797 2.746552,-4.291361 2.0539,-6.743962 -0.692653,-2.4526 -4.380066,-1.592347 -4.774012,-4.714623 -0.393944,-3.122279 2.298128,-5.514607 1.483854,-9.151654 -0.814273,-3.637047 -2.258875,-1.236148 -2.304497,-5.583703 -0.04562,-4.347555 0.9193,-5.486076 2.080237,-7.564966 1.160936,-2.078889 3.86103,-2.757699 5.786815,-1.254856 1.925789,1.502844 3.43212,4.261389 0.63839,6.060015 -2.79373,1.798625 1.398148,4.867671 2.202301,9.355533 0.804154,4.487862 -3.466502,5.770533 -3.011839,8.735422 0.454665,2.964892 3.42133,3.010903 4.868899,6.449396 1.447573,3.438493 -1.724067,3.585729 -0.327009,6.603032 1.397056,3.0173 5.349322,4.580726 5.349322,6.257689 0,1.676964 -3.658859,3.258193 -6.110504,2.892978 z"
         id="path81" />
      <path
         style="fill:#1ee85b;fill-opacity:1;stroke:none;stroke-width:0.264583px;stroke-linecap:butt;stroke-linejoin:miter;stroke-opacity:1"
         d="m -35.160761,75.287886 c 2.548557,1.717463 4.721863,-0.625372 5.990683,-2.415574 1.26882,-1.7902 -0.272492,-4.312756 0.498443,-6.748669 0.770935,-2.435913 4.889897,-0.75891 5.911779,-3.877567 1.021884,-3.118657 -1.242875,-6.067403 -0.382291,-9.590772 0.860581,-3.523369 5.59213,-4.282924 6.860701,-6.707074 1.268571,-2.42415 1.86641,-8.247934 0.68213,-10.150588 -1.184283,-1.902653 -5.631421,-0.642043 -5.810115,-3.866322 -0.178694,-3.224278 2.329188,-2.576347 2.490004,-5.118533 0.160819,-2.542186 1.326883,-7.77793 -0.924917,-9.402735 -2.2518,-1.624805 -5.677201,-3.627032 -7.691048,-1.998264 -2.013847,1.628767 -3.368323,6.819499 -1.517817,7.47356 1.850507,0.654061 5.665719,2.741579 4.882634,4.20784 -0.783082,1.46626 -2.855571,3.519388 -2.766221,6.683554 0.08935,3.164166 2.738194,1.862021 3.140268,5.056616 0.402074,3.194594 -4.439362,3.765552 -4.394478,6.39583 0.04488,2.630278 1.533956,3.804211 0.930722,6.387727 -0.603234,2.583513 -3.383954,3.261844 -4.044307,5.964909 -0.660352,2.703063 1.406242,4.298807 0.03746,6.281904 -1.368788,1.983097 -5.251495,1.829499 -5.356014,4.121788 -0.104518,2.292292 1.462389,7.30237 1.462389,7.30237 z"
         id="path83" />
      <path
         style="fill:#1ee85b;fill-opacity:1;stroke:none;stroke-width:0.264583px;stroke-linecap:butt;stroke-linejoin:miter;stroke-opacity:1"
         d="m -19.630018,37.82751 c -0.24125,-2.06632 -0.591005,-3.014027 1.95245,-4.651671 2.543458,-1.637644 2.895087,-0.226257 4.424858,-0.194399 1.52977,0.03186 4.4583374,-3.412507 3.5269754,-5.564615 -0.9313634,-2.152108 -1.0100524,-5.317198 0.912267,-5.79889 1.922322,-0.481691 5.171051,-0.0523 5.662475,1.698439 0.491424,1.750735 2.160214,6.014654 1.194501,7.734495 -0.965716,1.719842 -5.094189,0.990333 -6.176872,3.211697 -1.082686,2.221364 -0.319075,3.887775 -2.7670744,4.951615 -2.447996,1.063839 -5.909069,2.759714 -8.72958,-1.386671 z"
         id="path85" />
      <path
         style="fill:#1ee85b;fill-opacity:1;stroke:none;stroke-width:0.264583px;stroke-linecap:butt;stroke-linejoin:miter;stroke-opacity:1"
         d="m -35.160758,75.287886 c 1.49987,1.675979 3.7025,3.183178 6.6368,3.453797 2.934301,0.270618 6.294054,-1.917174 6.20489,-3.734022 -0.08916,-1.816846 0.113273,-5.805139 2.468343,-5.351902 2.355072,0.453239 2.455595,-1.422281 3.188803,-2.377821 0.733208,-0.95554 2.015696,0.05526 4.77788,0.427456 2.7621864,0.372189 4.0598044,-0.72366 4.8842214,-2.883721 0.824421,-2.160061 2.645014,-3.383248 4.406882,-4.83431 1.761868,-1.451062 -2.391955,-5.313021 -1.311923,-8.030554 1.080029,-2.71753 3.036078,-4.453046 1.660017,-6.230993 -1.376061,-1.777949 -4.770086,-3.572473 -6.216063,-2.111576 -1.445977,1.460897 0.125532,3.511354 -0.51404,6.360136 -0.639572,2.848785 -1.6408434,3.793302 -3.3808594,5.072375 -1.740017,1.27907 2.9448784,3.914785 1.279882,5.541682 -1.664997,1.626899 -3.855884,-0.353873 -6.308804,0.914056 -2.452923,1.267925 -3.139866,0.336515 -6.648363,1.185166 -3.508494,0.848654 -7.457691,5.869136 -7.457691,5.869136 z"
         id="path87" />
    </g>
  </g>
  <g
     inkscape:groupmode="layer"
     id="layer4"
     inkscape:label="Layer 4"
     style="display:inline">
    <path
       style="fill:#1392e8;fill-opacity:1;stroke:none;stroke-width:0.398044px;stroke-linecap:butt;stroke-linejoin:miter;stroke-opacity:1"
       d="m 44.088024,112.52975 c 6.132409,1.75711 8.176195,1.31583 10.783732,-3.9e-4 2.607552,-1.31637 4.59098,-4.20356 1.63335,-5.7986 -2.957632,-1.59505 -4.438372,-3.60069 -1.813519,-6.58515 2.624837,-2.984466 5.161246,-8.723086 3.49856,-10.415074 -1.662671,-1.691989 -6.589588,-3.021815 -6.878767,-1.330604 -0.289181,1.691217 1.897675,4.911393 0.486635,7.152727 -1.411042,2.241327 -1.829302,5.651101 -4.306901,1.244185 -2.477587,-4.4069 -4.568565,-10.667284 -3.095692,-13.258393 1.472872,-2.591112 3.170867,-11.361173 5.997538,-12.94067 2.826671,-1.579501 5.773154,-2.897196 6.170593,-5.197845 0.397422,-2.30065 2.349709,-1.105768 3.827876,-3.094034 1.47817,-1.988264 -0.170044,-7.728157 -2.072864,-5.857795 -1.902837,1.870362 -4.632081,3.397695 -5.44152,3.521631 -0.809424,0.123936 -1.778029,-0.474158 -1.048627,-3.119129 0.729419,-2.644972 3.849512,-6.444773 5.311357,-7.002329 1.461847,-0.557558 1.870537,-3.19223 -2.138098,-3.527989 -4.008649,-0.335757 -5.779833,0.81897 -6.531788,3.030492 -0.751939,2.211519 -2.948092,3.00544 -3.874454,6.068647 -0.926362,3.063205 -1.755916,7.314259 -2.875865,6.942483 -1.119951,-0.371778 -1.962397,-6.098682 -2.227581,-8.891905 -0.265184,-2.79322 -0.11238,-5.68075 1.694533,-8.791072 1.806931,-3.110322 3.874319,-3.655481 6.42129,-7.416916 2.546954,-3.761433 6.734267,-10.110172 6.00175,-14.164261 -0.732532,-4.054086 -5.856996,-6.277206 -7.095946,-4.918179 -1.23895,1.359028 -3.893185,1.138021 -4.430865,4.957296 -0.537694,3.819278 -2.058122,7.597075 -2.259549,9.42195 -0.201427,1.824873 -3.69424,4.439609 -4.072633,1.981577 -0.378406,-2.458034 -1.232993,-5.182609 0.08681,-7.169831 1.319782,-1.987221 -1.358221,-7.378506 -3.207456,-6.209325 -1.849234,1.169181 -4.881589,2.48942 -4.568986,4.698173 0.312588,2.208756 2.450446,5.939681 2.450446,7.158491 0,1.218811 0.545098,3.669983 -1.910253,3.804405 -2.45535,0.13442 -5.555991,-1.883114 -5.892049,-4.220559 -0.336057,-2.337442 1.242892,-14.352561 -0.26884,-15.928965 -1.511731,-1.576404 -6.491605,-3.820659 -7.278687,-0.865057 -0.787083,2.955601 -0.04785,5.832934 0.221073,7.973139 0.268841,2.140206 2.225746,12.880495 3.405994,14.654842 1.180248,1.774349 5.788846,6.485151 7.331403,9.912798 1.542543,3.427645 3.602109,10.624544 3.87095,12.878628 0.268839,2.254084 4.077506,6.178925 -0.820843,5.977289 -4.898362,-0.201634 -8.913736,0.936952 -11.384508,-0.806355 -2.470784,-1.743309 -4.597147,-1.946128 -4.932648,-5.309888 -0.335485,-3.363761 -0.180426,-4.037907 -1.53484,-4.230056 -1.3544304,-0.192147 -3.5904353,3.056952 -3.5904353,3.056952 0,0 2.0432143,-9.01075 0.9908117,-10.847728 -1.0524022,-1.836981 -4.8519077,-3.007509 -5.2540691,-1.705096 -0.4021616,1.302411 -3.75671895,5.405874 -3.21997129,7.627493 0.53673199,2.221619 3.57185579,8.008683 4.16659769,9.403786 0.5947276,1.395107 -2.9150401,5.530109 -2.9150401,7.417231 0,1.88712 0.2663125,3.449343 2.0855174,3.516556 1.8191906,0.06722 11.678938,1.207625 14.321815,-0.0561 2.64286,-1.263715 11.207346,-2.701987 13.429978,-0.758454 2.22263,1.943536 4.832905,11.436542 4.832905,12.516824 0,1.080281 -0.209791,4.179491 -2.840647,4.582754 -2.63084,0.403263 -5.724365,1.611577 -6.776497,0.268845 -1.052116,-1.342733 -2.309813,-4.003533 -4.245205,-4.33597 -1.935406,-0.332436 -5.377145,0.483323 -6.113949,1.876043 -0.736791,1.392713 -1.070201,3.441496 -1.005631,4.481038 0.06454,1.039541 2.969366,5.879757 6.830702,5.945022 3.861321,0.06527 9.859552,-2.49389 11.970329,-1.225856 2.110777,1.268018 5.237822,2.213068 6.512863,4.625558 1.275041,2.41248 1.758397,6.78646 3.589833,9.28285 z"
       id="path89" />
  </g>
  <g
     inkscape:label="Layer 1"
     inkscape:groupmode="layer"
     id="layer1"
     style="display:inline">
    <g
       id="g1990"
       transform="matrix(1.2678408,0,0,1.2678408,73.986095,-8.9353824)">
      <path
         style="fill:#ef3939;fill-opacity:1;stroke:none;stroke-width:0.264583px;stroke-linecap:butt;stroke-linejoin:miter;stroke-opacity:1"
         d="m -36.318751,62.536059 c 0.685906,3.263217 2.062816,6.24622 5.359355,8.49007 3.296539,2.24385 5.100825,2.46695 5.100825,2.46695 0,0 -1.903862,-3.45948 -2.615073,-7.604789 -0.711213,-4.145306 -7.845107,-3.352231 -7.845107,-3.352231 z"
         id="path74" />
      <path
         style="fill:#ef3939;fill-opacity:1;stroke:none;stroke-width:0.264583px;stroke-linecap:butt;stroke-linejoin:miter;stroke-opacity:1"
         d="m -33.052306,44.71225 c 0.21798,-2.943159 3.270644,-5.994511 6.964593,-7.155514 3.693951,-1.161002 7.171838,-2.042919 11.106065,-0.869394 3.934227,1.173528 7.9762875,2.729188 8.9338805,5.422696 0.957591,2.693509 1.079863,6.715151 -1.089321,8.323186 -2.169181,1.608034 -25.9152175,-5.720974 -25.9152175,-5.720974 z"
         id="path76" />
      <path
         style="fill:#ef3939;fill-opacity:1;stroke:none;stroke-width:0.264583px;stroke-linecap:butt;stroke-linejoin:miter;stroke-opacity:1"
         d="m -27.347368,66.426786 c 0.439629,1.829613 5.206024,6.537953 9.363922,6.800033 4.157898,0.26207 9.6311075,-2.37795 11.2760515,-4.5052 1.644943,-2.127262 3.298311,-6.340291 2.178767,-9.019787 -1.119542,-2.679499 -22.8187405,6.724954 -22.8187405,6.724954 z"
         id="path78" />
      <path
         style="fill:#f97339;fill-opacity:1;stroke:none;stroke-width:0.264583px;stroke-linecap:butt;stroke-linejoin:miter;stroke-opacity:1"
         d="m -46.698942,59.121926 c -0.112202,-2.019001 2.659726,-2.519847 3.809343,-3.979069 1.149618,-1.459224 1.756386,-7.524366 6.120903,-10.188765 4.364514,-2.664399 19.72583,-7.589385 25.492601,-1.28062 5.7667675,6.308764 5.8674395,8.223734 5.8674395,8.223734 0,0 2.691228,1.277067 4.83313304,-0.200774 2.14190196,-1.477841 5.24585096,-6.156881 7.43033296,-4.759404 2.184477,1.397476 -0.817158,8.511635 -0.817158,8.511635 0,0 3.488005,5.206121 2.052215,6.942727 -1.435796,1.736606 -4.990248,-0.823066 -7.95117096,-1.872379 -2.96092104,-1.049314 -4.66732204,-0.817179 -4.66732204,-0.817179 0,0 -5.7882355,8.613117 -12.3116015,9.600267 -6.523368,0.98714 -15.331442,-3.104707 -19.147104,-5.020533 -3.815665,-1.91583 -4.15434,-2.980399 -6.033916,-3.114427 -1.879576,-0.134024 -4.345141,-0.305297 -4.677695,-2.045213 z"
         id="path72" />
      <path
         id="path72-3"
         style="display:inline;fill:#ef3939;fill-opacity:1;stroke:none;stroke-width:0.999999px;stroke-linecap:butt;stroke-linejoin:miter;stroke-opacity:1"
         d="m 22.662109,176.42773 c -7.887236,-0.0771 -17.7544349,14.07359 -24.8378902,18.96094 -7.0004402,4.83007 -15.5253248,1.88215 -17.7109378,0.99414 -0.461873,8.23434 0.263716,18.11459 3.472657,29.21289 1.873749,-0.10624 7.7829351,-0.10754 16.9374995,3.13672 11.1908895,3.96591 24.6261035,13.64168 30.0527345,7.07813 5.426608,-6.56355 -7.75586,-26.24024 -7.75586,-26.24024 0,0 11.344182,-26.88812 3.087891,-32.16992 -1.032039,-0.66022 -2.119346,-0.96164 -3.246094,-0.97266 z"
         transform="scale(0.26458333)" />
      <circle
         style="fill:#ef3939;fill-opacity:1;stroke:none;stroke-width:4;stroke-miterlimit:0;stroke-opacity:1;stop-color:#000000"
         id="path1902"
         cx="-34.984577"
         cy="50.662464"
         r="1.9890133" />
    </g>
  </g>
  <g
     inkscape:groupmode="layer"
     id="layer3"
     inkscape:label="Layer 3"
     style="display:inline">
    <g
       id="g2519"
       transform="matrix(1.1915039,0,0,1.1915039,-118.11959,-24.353234)">
      <path
         style="fill:#f97339;fill-opacity:1;stroke:none;stroke-width:0.264583px;stroke-linecap:butt;stroke-linejoin:miter;stroke-opacity:1"
         d="m 139.9316,91.73453 c 0.12426,-1.976096 -0.42597,-1.902293 0.0796,-2.585606 0.50556,-0.68331 2.60303,-0.877398 2.92519,-0.06059 0.32216,0.816803 2.09045,5.26002 2.09045,5.26002 0,0 -0.49832,-1.820921 0.32732,-2.873864 0.82564,-1.052944 2.30989,-0.592403 2.30989,-0.592403 l 1.47153,2.807769 2.22538,4.025779 c 0,0 2.14606,-3.210227 2.91091,-4.156073 0.76486,-0.945848 1.46345,-1.571188 2.08979,-1.571188 0.62634,0 1.74177,1.023228 2.91782,5.502865 1.17606,4.479631 0.89301,-8.109508 0.93753,-8.89191 0.0445,-0.782405 0.2291,-3.202924 1.09232,-3.393493 0.86322,-0.190569 1.5676,0.400701 1.70106,1.762008 0.13347,1.361308 -2.85664,4.529045 -1.29668,6.912441 1.55996,2.383396 7.02282,3.25034 7.02282,3.25034 l 3.29958,-2.33607 c 0,0 0.73998,-5.168124 1.4916,-6.06833 0.75162,-0.900205 2.85969,-0.906806 3.32986,0.457605 0.47017,1.364409 -3.31386,8.14279 -3.31386,8.14279 l -3.80404,6.02981 -21.78644,0.002 z"
         id="path93" />
      <path
         style="fill:#edea50;fill-opacity:1;stroke:none;stroke-width:0.264583px;stroke-linecap:butt;stroke-linejoin:miter;stroke-opacity:1"
         d="m 145.94404,116.23002 c -0.88103,1.73097 -1.60806,2.27292 -1.11585,2.82633 0.49221,0.5534 2.93764,1.57862 4.69122,1.53174 1.75358,-0.0469 2.49131,-1.42592 3.97703,-1.3109 1.48573,0.11502 3.38402,2.30576 5.84533,2.04736 2.46131,-0.25841 3.76181,-2.54118 5.83052,-2.60989 2.06871,-0.0687 6.28037,2.93706 7.55682,0.84885 1.27644,-2.08821 1.38736,-3.01199 0.10479,-4.2751 -1.28258,-1.26312 -1.49251,-2.50927 -1.33537,-4.2679 0.15715,-1.75864 2.72597,-4.41576 3.6614,-6.62349 0.93543,-2.20773 1.90319,-4.02303 2.84741,-4.15671 0.94422,-0.13368 3.41012,-0.1199 3.52718,-1.746657 0.11706,-1.626762 -0.48478,-2.898706 -1.20071,-2.185882 -0.71593,0.712825 -3.99167,3.035805 -3.99167,3.035805 0,0 5.07305,-4.261876 5.32524,-5.125092 0.2522,-0.863219 1.06135,-2.515003 0.22723,-2.812892 -0.83412,-0.297891 -2.23073,-0.554273 -2.80037,0.407845 -0.56965,0.96212 -2.7631,2.65435 -2.7631,2.65435 0,0 3.24125,-3.242043 3.15648,-5.012036 -0.0848,-1.769991 -1.33285,-2.595756 -2.07642,-2.18245 -0.74356,0.413308 -2.86249,4.462139 -2.86249,4.462139 0,0 -0.45361,-1.757918 0.45581,-3.471973 0.90943,-1.714056 0.42562,-3.400266 -0.47013,-3.791373 -0.89576,-0.391107 -2.32696,1.168712 -2.2576,3.064631 0.0694,1.89592 -1.42861,5.532673 -1.42861,5.532673 0,0 1.56216,-7.185467 0.70291,-8.805886 -0.85924,-1.620417 -1.97496,-1.240848 -2.3682,0.05286 -0.39324,1.293712 -0.26129,3.807991 -0.71112,5.510363 -0.44983,1.702371 -2.0205,3.492672 -2.0205,3.492672 0,0 -0.7157,-3.613642 -0.19471,-4.407898 0.52098,-0.794258 1.80666,-2.856544 1.49925,-4.54711 -0.30741,-1.690566 -2.15402,-1.453542 -2.71238,-0.319175 -0.55837,1.134367 -0.41499,2.802136 -1.36252,4.78636 -0.94753,1.984224 -1.96721,5.048697 -1.96721,5.048697 0,0 0.26549,-4.533114 -0.79984,-6.146977 -1.06533,-1.613863 -1.82635,-3.737941 -3.33316,-3.15268 -1.50681,0.585261 -1.01015,2.593261 -0.40489,4.10673 0.60525,1.51347 1.61215,2.809029 1.13799,3.717544 -0.47417,0.908519 -0.98869,2.633949 -0.98869,2.633949 0,0 -2.39954,-2.653872 -2.53357,-4.121317 -0.13403,-1.467445 0.91702,-2.27747 1.13861,-3.593235 0.22159,-1.315765 0.20821,-2.647619 -1.20582,-3.048796 -1.41403,-0.401177 -2.66832,0.702585 -2.80234,2.252953 -0.13402,1.550369 -0.21525,4.197125 -0.17058,5.416474 0.0447,1.21935 0.66243,3.957859 0.66243,3.957859 0,0 -2.16312,-2.875639 -2.25247,-4.32027 -0.0893,-1.444633 1.45117,-4.900827 0.64139,-5.847992 -0.80979,-0.947169 -2.8605,-0.992701 -3.37514,0.165647 -0.51464,1.158349 -0.0229,9.596239 -0.0229,9.596239 0,0 -2.08033,-3.403161 -2.25646,-4.841944 -0.17613,-1.438785 -0.33048,-3.428015 -1.2203,-3.792114 -0.88982,-0.364101 -2.11194,1.235951 -2.10796,2.942545 0.004,1.706592 1.96561,6.701507 1.96561,6.701507 0,0 -1.86963,-1.730248 -2.1268,-2.821776 -0.25717,-1.091528 -0.52372,-2.801861 -1.65918,-3.714128 -1.13546,-0.912267 -2.62346,-0.528786 -2.88768,0.544417 -0.26422,1.073203 1.65905,4.876763 1.65905,4.876763 0,0 -2.20177,-1.99853 -3.92226,-1.356241 -1.72048,0.642287 -2.64437,1.695175 -2.42567,2.51583 0.2187,0.820656 1.30604,1.190509 2.67449,0.967539 1.36844,-0.222969 3.38289,-0.256362 3.46456,0.996379 0.0817,1.252741 1.2548,4.448784 2.82251,5.022974 1.56773,0.5742 2.87516,2.01734 3.23348,3.3077 0.35832,1.29036 0.99456,3.00382 1.31312,4.34101 0.31856,1.33719 1.66021,2.68184 1.14564,3.38276 -0.51457,0.70092 -0.82944,1.14488 -1.13285,1.66039 z"
         id="path91" />
      <path
         id="path91-7"
         style="display:inline;fill:#ed9a26;fill-opacity:1;stroke:none;stroke-width:0.999999px;stroke-linecap:butt;stroke-linejoin:miter;stroke-opacity:1"
         d="m 629.26758,314.25 c -2.15386,-0.0388 -4.4253,1.2567 -5.48047,3.40039 -2.11038,4.28737 -1.56918,10.59237 -5.15039,18.0918 -3.58122,7.49943 -7.43555,19.08008 -7.43555,19.08008 0,0 1.00301,-17.13279 -3.02344,-23.23243 -4.02644,-6.09964 -6.90262,-14.12802 -12.59765,-11.91601 -5.69503,2.21201 -3.8169,9.80324 -1.5293,15.52344 2.28756,5.7202 6.09288,10.61507 4.30078,14.04882 -1.79214,3.43378 -3.73633,9.95508 -3.73633,9.95508 0,0 -9.0696,-10.02992 -9.57617,-15.57617 -0.50657,-5.54625 3.46523,-8.60711 4.30274,-13.58008 0.8375,-4.97297 0.78772,-10.00718 -4.55664,-11.52344 -5.34437,-1.51626 -10.08527,2.65597 -10.5918,8.51563 -0.50653,5.85966 -0.81336,15.86214 -0.64453,20.4707 0.16894,4.60857 2.5039,14.95899 2.5039,14.95899 0,0 -8.17597,-10.86811 -8.51367,-16.32813 -0.33751,-5.46003 5.48442,-18.52368 2.42383,-22.10351 -3.06062,-3.57986 -10.81076,-3.75106 -12.75586,0.62695 -1.94509,4.37801 -0.0859,36.26953 -0.0859,36.26953 0,0 -7.8636,-12.86286 -8.52929,-18.30078 -0.66569,-5.43793 -1.24823,-12.95591 -4.61133,-14.33203 -3.3631,-1.37613 -7.98379,4.67097 -7.96875,11.12109 0.0151,6.45011 7.42969,25.32813 7.42969,25.32813 0,0 -7.06513,-6.53861 -8.03711,-10.66407 -0.97198,-4.12546 -1.97999,-10.58917 -6.27149,-14.0371 -4.2915,-3.44794 -9.91543,-1.99956 -10.91406,2.05664 -0.99863,4.0562 6.26953,18.43164 6.26953,18.43164 0,0 -8.32158,-7.55255 -14.82422,-5.125 -6.5026,2.42754 -9.99455,6.40612 -9.16797,9.50781 0.82659,3.10169 4.93728,4.49897 10.10938,3.65625 5.17206,-0.84272 12.78507,-0.96719 13.09375,3.76758 0.30879,4.73477 4.74276,16.8142 10.66797,18.98437 1.21026,0.44327 2.37643,1.0285 3.48242,1.71289 3.13419,-2.21883 6.28462,-4.26317 13.32422,-2.37695 7.42167,1.98864 18.88554,3.32304 22.33984,0.69336 3.45426,-2.62968 8.80594,-4.63942 12.14258,-4.33203 3.3366,0.30727 6.0378,2.81607 10.01953,4.05859 3.98173,1.24248 6.39169,3.3126 9.14844,2.88086 2.75675,-0.43177 1.52864,-2.28353 5.44922,-2.94336 3.92058,-0.65987 7.73034,0.84653 11.26953,2.0957 3.53919,1.24914 8.72188,-0.42819 10.89258,-2.14648 2.17069,-1.71829 10.45515,-5.83597 13.37695,-5.08203 2.9218,0.75394 5.69185,5.59402 9.23047,6.95703 2.59018,0.99766 3.623,2.06061 7.08789,1.48047 3.50193,-8.22885 7.11996,-14.96279 10.65234,-15.46289 3.56871,-0.50525 12.8896,-0.45319 13.33203,-6.60156 0.44244,-6.1484 -1.83318,-10.95586 -4.53906,-8.26172 -2.70588,2.69414 -15.08594,11.47461 -15.08594,11.47461 0,0 19.1738,-16.10855 20.12696,-19.3711 0.95319,-3.26256 4.01195,-9.50498 0.85937,-10.63086 -3.15258,-1.12588 -8.43101,-2.09533 -10.58398,1.54102 -2.15301,3.63636 -10.44336,10.03125 -10.44336,10.03125 0,0 12.25008,-12.25362 11.92969,-18.94336 -0.32051,-6.68973 -5.03732,-9.81015 -7.84766,-8.24805 -2.81031,1.56211 -10.82031,16.86524 -10.82031,16.86524 0,0 -1.71452,-6.64473 1.72265,-13.12305 3.43722,-6.47832 1.61012,-12.85188 -1.77539,-14.33008 -3.38555,-1.4782 -8.79535,4.41831 -8.5332,11.58399 0.2623,7.16568 -5.40039,20.91015 -5.40039,20.91015 0,0 5.90576,-27.15683 2.6582,-33.28125 -3.24752,-6.12441 -7.46491,-4.69038 -8.95117,0.19922 -1.48626,4.88962 -0.98735,14.39201 -2.6875,20.82617 -1.70014,6.43416 -7.63672,13.20118 -7.63672,13.20117 0,0 -2.70542,-13.65824 -0.73633,-16.66015 1.96906,-3.00192 6.82788,-10.79601 5.66602,-17.18555 -0.58093,-3.19477 -2.61568,-4.56861 -4.76953,-4.60742 z"
         transform="scale(0.26458333)" />
    </g>
  </g>
</svg>
